# xmcd
#
# Track frame offsets:
#	150
#	17625
#	31275
#	56475
#	71775
#	88725
#	105450
#	122250
#	135600
#	148125
#	160050
#	174675
#	188625
#	202350
#	220200
#	233775
#	244950
#	260025
#	273750
#	287475
#
# Disc length: 4020 seconds
#
# Revision: 1
# Processed by: cddbd v1.5.2PL0 Copyright (c) Steve Scherf et al.
# Submitted via: EasyCDDAExtractor 16.0.8.2
#
DISCID=2a0fb214
DTITLE=Μπιθικώτσης Γρηγόρης - Η Ελλάδα του Γρηγόρη 2
DYEAR=1994
DGENRE=Λαϊκή
TTITLE0=Είμ' αητός χωρίς φτερά
TTITLE1=Αχ βρε παλιομισοφόρια
TTITLE2=Καϋμός
TTITLE3=Μίλησέ μου
TTITLE4=Στρώσε το στρώμα μου
TTITLE5=Ένα δειλινό
TTITLE6=Στράτα την στράτα
TTITLE7=Χρυσοπράσινο φύλλο
TTITLE8=Στου Δεληβοριά
TTITLE9=Υπομονή
TTITLE10=Αύριο πάλι
TTITLE11=Μέσα απ' το παλιό μου σπίτι
TTITLE12=Άπονη ζωή
TTITLE13=Σαββατόβραδο στην Καισαριανή
TTITLE14=Ο μπαγλαμάς
TTITLE15=Στα χέρια σου μεγάλωσαν
TTITLE16=Μ' ένα παράπονο
TTITLE17=Όταν σημάνει η ώρα
TTITLE18=Ρολόϊ, κομπολόϊ
TTITLE19=Τι να σού κάνει μιά καρδιά
EXTD=
EXTT0=
EXTT1=
EXTT2=
EXTT3=
EXTT4=
EXTT5=
EXTT6=
EXTT7=
EXTT8=
EXTT9=
EXTT10=
EXTT11=
EXTT12=
EXTT13=
EXTT14=
EXTT15=
EXTT16=
EXTT17=
EXTT18=
EXTT19=
PLAYORDER=
